<svg width="16" height="17" viewBox="0 0 16 17" fill="none" xmlns="http://www.w3.org/2000/svg">
<path d="M6.02564 13.8599C2.4359 14.9299 2.4359 12.0764 1 11.7197M11.0513 16V13.2392C11.0782 12.8991 11.032 12.5571 10.9156 12.2361C10.7992 11.9151 10.6154 11.6223 10.3764 11.3773C12.6308 11.1276 15 10.2787 15 6.3837C14.9998 5.3877 14.6142 4.4299 13.9231 3.70854C14.2504 2.83716 14.2272 1.87399 13.8585 1.01911C13.8585 1.01911 13.0113 0.769432 11.0513 2.07491C9.40575 1.63178 7.67117 1.63178 6.02564 2.07491C4.06564 0.769432 3.21846 1.01911 3.21846 1.01911C2.84971 1.87399 2.82657 2.83716 3.15385 3.70854C2.45753 4.43525 2.07155 5.40171 2.07692 6.4051C2.07692 10.2716 4.44615 11.1205 6.70051 11.3987C6.46431 11.6413 6.28214 11.9305 6.16586 12.2476C6.04959 12.5647 6.00181 12.9026 6.02564 13.2392V16" stroke="white" stroke-width="2" stroke-linecap="round" stroke-linejoin="round"/>
</svg>
