<svg width="431" height="493" viewBox="0 0 431 493" fill="none" xmlns="http://www.w3.org/2000/svg">
<path d="M4.66895 252.01H431V279.835C431 397.563 335.563 493 217.834 493V493C100.106 493 4.66895 397.563 4.66895 279.835V252.01Z" fill="#61458D" fill-opacity="0.5" style="mix-blend-mode:hard-light"/>
<path d="M26.9696 394.914C15.9457 389.33 15.6726 381.322 16.914 378.016L66.0747 369.566L81.7167 410.711C68.061 407.772 37.9935 400.498 26.9696 394.914Z" fill="#3B108F" stroke="black" stroke-width="2"/>
<mask id="mask0_20_2" style="mask-type:alpha" maskUnits="userSpaceOnUse" x="3" y="252" width="427" height="241">
<path d="M3.20135 252.01H429.532V279.835C429.532 397.563 334.095 493 216.367 493V493C98.6388 493 3.20135 397.563 3.20135 279.835V252.01Z" fill="#61458D"/>
</mask>
<g mask="url(#mask0_20_2)">
<path d="M306.128 609.562C291.794 590.781 278.754 526.959 274.026 497.396L145.99 370.696C160.423 359.02 193.322 336.636 209.448 340.512C229.605 345.356 269.173 377.031 306.501 396.036C336.364 411.24 343.581 435.412 343.456 445.598C352.415 503.135 333.253 581.365 322.552 613.289C313.594 616.27 307.87 612.047 306.128 609.562Z" fill="#485EEA" stroke="black" stroke-width="2"/>
<path d="M179.021 472.252C76.4334 454.079 58.7389 401.622 62.7152 377.665C68.1826 370.589 90.748 348.767 162.619 365.748C252.459 386.974 273.94 413.764 301.292 454.75C322.913 487.148 229.346 588.066 223.009 596.631C204.973 621.008 176.785 657.703 168.584 656.214C163.365 655.266 161.625 647.773 159.264 642.435C158.519 591.79 174.175 541.889 199.151 506.14C219.132 477.54 195.796 474.859 179.021 472.252Z" fill="#485EEA" stroke="black" stroke-width="2"/>
</g>
<path d="M175.642 401.527V398.588L178.577 400.057L175.642 401.527Z" fill="#A59BB7" stroke="black" stroke-width="2"/>
<path d="M255.972 436.426L175.642 401.45L282.005 349.729L366.427 380.985L255.972 436.426Z" fill="#ACA9B4" stroke="black" stroke-width="2"/>
<path d="M255.972 433.487L175.642 398.511L282.005 346.79L366.427 378.046L255.972 433.487Z" fill="#ACA9B4" stroke="black" stroke-width="2"/>
<path d="M272.945 368.088C270.829 364.108 266.672 362.596 264.858 362.338C265.715 360.151 267.697 356.044 268.77 357.116C270.112 358.457 278.441 363.283 285.693 366.839C292.945 370.394 298.213 379.35 303.821 383.789C309.43 388.228 312.472 403.507 311.518 403.914C310.565 404.321 309.283 401.68 307.979 398.046C306.936 395.139 301.892 388.984 299.5 386.27C298.918 386.336 298.022 386.737 299.096 387.809C300.437 389.15 308.436 407.051 307.218 407.388C306.001 407.726 302.219 402.781 301.362 399.594C300.677 397.044 296.602 391.211 294.65 388.612C294.386 388.543 293.81 388.589 293.616 389.327C293.373 390.25 299.498 402.393 299.826 405.441C300.154 408.489 298.899 411.12 297.127 406.047C295.709 401.988 291.774 394.546 289.984 391.332L288.928 391.054C288.958 393.804 289.048 399.838 289.164 401.975C289.309 404.645 286.878 409.599 286.669 403.95C286.459 398.301 285.334 390.765 282.592 389.385C279.85 388.004 275.59 373.062 272.945 368.088Z" fill="#201E25" stroke="black" stroke-width="2"/>
<path d="M254.891 436.426L282.906 317.751L399.447 271.848L366.576 381.194L254.891 436.426Z" fill="#D7E4FD" stroke="black" stroke-width="2"/>
<path d="M273.969 356.508C267.759 344.231 227.763 305.728 208.541 288.012C197.599 305.08 200.285 330.307 202.996 340.787C213.938 347.674 248.956 361.373 265.098 367.362C268.942 367.063 272.614 360.001 273.969 356.508Z" fill="#6215DD" stroke="black" stroke-width="2"/>
<path d="M273.969 362.385C267.759 350.109 227.763 311.606 208.541 293.89C197.599 310.958 200.285 336.185 202.996 346.665C213.938 353.552 248.956 367.251 265.098 373.24C268.942 372.941 272.614 365.879 273.969 362.385Z" fill="#20172F" fill-opacity="0.47"/>
<path d="M183.577 151.256C176.42 148.875 164.194 135.634 158.975 129.311L145.556 144.933C150.029 210.517 160.168 344.959 164.939 358.051C169.711 371.143 188.547 371.193 197.369 369.581C197.369 369.581 208.857 363.799 214.516 358.051C222.343 350.099 220.107 348.009 220.107 348.009C221.225 328.668 212.776 280.193 206.315 257.257C217.05 182.87 195.629 161.298 183.577 159.81V151.256Z" fill="#6215DD" stroke="black" stroke-width="2"/>
<path d="M173.888 151.324C166.759 148.936 154.581 135.654 149.383 129.311L136.017 144.981C140.472 210.769 150.571 345.627 155.324 358.759C160.076 371.892 174.754 378.284 183.541 376.667C183.541 376.667 193.398 372.352 206.932 363.983C211.759 360.998 218.07 353.909 218.07 353.909C219.853 338.09 202.972 280.66 196.536 257.653L173.888 159.905V151.324Z" fill="#3B108F"/>
<path d="M219.938 47.7571C215.192 59.153 201.226 67.3817 174.817 63.4886C169.473 62.6911 158.475 64.5163 157.235 78.1964C156.703 84.0666 152.526 85.7073 149.756 76.9595C146.294 66.0248 131.516 67.2076 134.647 83.2685C137.664 98.7482 139.49 99.3515 142.313 100.284C142.419 100.319 142.526 100.355 142.635 100.392C144.696 101.087 142.37 103.486 139.538 103.74C141.11 116.868 136.067 129.492 133.082 134.524L135.372 149.863L153.268 152.823C153.363 134.245 163.21 128.019 168.122 127.229C185.11 136.877 201.107 131.615 206.982 127.778C231.672 109.381 226.908 70.321 219.938 47.7571Z" fill="#201E25" stroke="black" stroke-width="2"/>
<path d="M174.785 63.2754C220.704 70.1098 228.818 39.7635 216.245 20.2259C209.678 10.0198 173.271 -0.48392 139.565 30.8468C105.86 62.1775 132.238 98.5956 135.838 102.32C139.438 106.044 145.755 101.373 142.76 100.353C139.765 99.3318 137.926 99.2851 134.811 83.1486C131.695 67.012 146.401 65.8236 149.847 76.8099C152.603 85.5989 156.759 83.9504 157.289 78.0526C158.523 64.308 169.467 62.4742 174.785 63.2754Z" stroke="black" stroke-width="2"/>
<path d="M219.67 47.3783C222.733 39.9449 221.954 31.1773 218.201 23.5112C223.622 28.0358 231.439 37.2884 230.616 47.9165C229.937 56.6791 227.011 65.0375 224.514 70.5335C223.53 62.0226 221.693 53.9978 219.67 47.3783Z" stroke="black" stroke-width="2"/>
<path d="M170.972 157.606C164.723 157.011 143.572 138.495 133.778 129.311C134.893 132.29 118.528 164.059 109.601 176.966C93.2358 229.584 54.5537 338.991 30.7493 355.67C6.94491 372.349 7.44083 381.731 10.6643 384.337C16.6154 398.335 46.3709 404.813 60.5048 406.303C38.1882 401.835 27.1538 392.279 24.4262 388.06C16.6154 370.189 56.7853 392.527 109.601 399.973C151.854 405.93 176.055 389.549 182.874 380.614C194.776 283.444 156.466 187.39 162.045 181.061C166.509 175.998 169.856 163.315 170.972 157.606Z" fill="#6215DD" stroke="black" stroke-width="2"/>
<path d="M198.618 378.519C194.434 374.686 188.406 374.219 185.915 374.465C186.288 371.762 187.484 366.578 189.277 367.462C191.519 368.568 204.223 371.516 215.058 373.359C225.894 375.202 235.982 383.679 244.95 386.996C253.917 390.313 263.258 406.529 262.137 407.266C261.016 408.003 258.401 405.423 255.411 401.738C253.02 398.789 244.202 393.384 240.092 391.05C239.345 391.295 238.299 392.008 240.092 392.892C242.334 393.998 259.148 411.689 257.653 412.426C256.159 413.163 249.433 408.74 247.191 405.423C245.398 402.77 237.975 397.438 234.488 395.104C234.114 395.104 233.367 395.325 233.367 396.209C233.367 397.315 245.697 409.109 247.191 412.426C248.686 415.743 247.939 419.06 243.829 413.9C240.541 409.772 232.744 402.598 229.257 399.526H227.762C228.759 402.598 230.975 409.33 231.872 411.689C232.993 414.637 231.499 420.902 229.257 414.637C227.015 408.372 222.905 400.264 218.795 399.526C214.685 398.789 203.849 383.31 198.618 378.519Z" fill="#201E25" stroke="black" stroke-width="2"/>
<path d="M105.393 158.905C110.752 155.933 124.001 145.285 129.955 140.332C129.955 184.312 100.927 258.948 86.4134 290.769C115.441 297.826 195.454 361.344 195.454 364.316C195.454 366.693 192.229 373.973 190.616 377.316C166.426 386.974 -5.50812 356.887 1.19061 308.97C7.88935 261.053 98.6944 162.619 105.393 158.905Z" fill="#6215DD"/>
<path d="M129.955 140.332C124.001 145.285 110.752 155.933 105.393 158.905C98.6944 162.619 7.88934 261.053 1.19061 308.97C-5.50812 356.887 166.426 386.974 190.616 377.316C192.229 373.973 195.454 366.693 195.454 364.316C195.454 361.344 115.441 297.826 86.4134 290.769C94.2639 273.557 106.361 243.819 115.813 213.181" stroke="black" stroke-width="2"/>
<path d="M186.648 193.232C191.564 205.478 202.116 235.553 204.993 257.888" stroke="black" stroke-width="2"/>
<g style="mix-blend-mode:overlay">
<path d="M1.01678 1.13184H2.92022V1.258C2.92022 1.78362 2.49412 2.20972 1.9685 2.20972V2.20972C1.44288 2.20972 1.01678 1.78362 1.01678 1.258V1.13184Z" fill="#61458D" fill-opacity="0.36" style="mix-blend-mode:hard-light"/>
</g>
<path d="M381.836 135.189C380.218 135.189 378.901 133.871 378.901 132.25C378.901 130.63 380.218 129.311 381.836 129.311C383.454 129.311 384.771 130.63 384.771 132.25C384.771 133.871 383.454 135.189 381.836 135.189ZM381.836 130.112C380.658 130.112 379.701 131.071 379.701 132.25C379.701 133.428 380.658 134.386 381.836 134.386C383.012 134.386 383.97 133.428 383.97 132.25C383.971 131.071 383.012 130.112 381.836 130.112Z" fill="#C28AFF"/>
<path d="M62.6404 197.641C58.1889 197.641 54.5666 194.014 54.5666 189.557C54.5666 185.1 58.1889 181.477 62.6404 181.477C67.0918 181.477 70.71 185.104 70.71 189.557C70.7141 194.014 67.0918 197.641 62.6404 197.641ZM62.6404 183.313C59.2023 183.313 56.405 186.114 56.405 189.557C56.405 192.999 59.2023 195.8 62.6404 195.8C66.0784 195.8 68.8758 192.999 68.8758 189.557C68.8758 186.114 66.0784 183.313 62.6404 183.313Z" fill="#C28AFF"/>
<path d="M393.944 101.392C387.266 101.392 381.836 95.9547 381.836 89.269C381.836 82.5833 387.266 77.146 393.944 77.146C400.621 77.146 406.051 82.5833 406.051 89.269C406.051 95.9547 400.621 101.392 393.944 101.392ZM393.944 80.1409C388.915 80.1409 384.827 84.2342 384.827 89.269C384.827 94.3037 388.915 98.397 393.944 98.397C398.972 98.397 403.06 94.3037 403.06 89.269C403.067 84.2342 398.972 80.1409 393.944 80.1409Z" fill="#FCD91E"/>
<path d="M400.625 91.4738C400.632 86.1624 396.313 81.8451 391.009 81.8451C385.703 81.8451 381.392 86.1629 381.392 91.4732C381.392 96.7834 385.703 101.101 391.009 101.101C396.313 101.101 400.625 96.7838 400.625 91.4738ZM400.625 91.4738L400.125 91.4732H400.625C400.625 91.4734 400.625 91.4736 400.625 91.4738ZM391.009 103.096C384.608 103.096 379.401 97.8833 379.401 91.4732C379.401 85.063 384.608 79.8502 391.009 79.8502C397.409 79.8502 402.616 85.063 402.616 91.4732C402.616 97.8833 397.409 103.096 391.009 103.096Z" stroke="black"/>
<path d="M287.177 216.376C287.177 203.151 273.358 179.885 266.265 169.721C294.148 162.374 307.112 166.66 314.328 171.191C316.676 155.027 328.514 139.965 334.14 134.455C336.195 143.565 350.406 162.741 357.254 171.191C344.34 177.95 335.73 201.192 333.039 211.968C310.439 206.09 293.048 212.458 287.177 216.376Z" fill="#C28AFF"/>
<path d="M284.017 232.173C284.017 217.228 265.74 190.936 256.358 179.451C293.237 171.148 310.383 175.991 319.926 181.111C323.031 162.845 338.689 145.825 346.129 139.598C348.846 149.893 367.642 171.563 376.7 181.111C364.465 186.583 355.151 201.61 349.544 214.172C328.992 207.192 326.802 224.091 326.435 224.661C305.598 223.515 290.112 228.697 284.017 232.173Z" fill="#C28AFF"/>
<path d="M284.651 221.152C284.651 207.868 268.379 184.497 260.027 174.288C292.858 166.908 308.122 171.213 316.618 175.764C319.383 159.527 333.321 144.398 339.945 138.863C342.364 148.014 359.097 167.277 367.16 175.764C354.768 181.297 345.741 197.828 341.111 209.615C333.48 206.263 328.972 211.746 327.672 214.907C306.48 212.592 290.578 217.777 284.651 221.152Z" fill="#C28AFF"/>
<path d="M346.372 212.121C351.925 201.61 359.525 192.24 368.667 184.65C371.256 182.501 373.968 180.509 376.781 178.667C377.071 178.477 377.238 178.056 377.023 177.741C369.925 167.293 362.282 157.219 355.538 146.531C353.792 143.763 352.108 140.954 350.576 138.061C350.167 137.291 349 137.975 349.409 138.745C352.262 144.134 355.608 149.259 359.02 154.307C362.678 159.72 366.475 165.038 370.246 170.373C372.135 173.043 374.017 175.719 375.856 178.425C375.937 178.116 376.018 177.807 376.098 177.498C366.016 184.102 357.287 192.686 350.493 202.649C348.564 205.477 346.802 208.413 345.203 211.44C344.796 212.206 345.963 212.891 346.372 212.121Z" fill="#231F20"/>
<path d="M330.329 220.994C330.435 218.347 331.035 214.472 333.565 213.003C335.057 212.135 337.25 212.337 338.848 212.754C340.708 213.239 342.383 214.205 344.044 215.144C344.802 215.573 345.485 214.403 344.727 213.975C342.84 212.908 340.906 211.808 338.767 211.343C336.918 210.942 334.576 210.849 332.883 211.834C329.899 213.569 329.105 217.842 328.978 220.996C328.941 221.866 330.295 221.865 330.329 220.994Z" fill="#231F20"/>
<path d="M254.211 181.91C257.167 187.909 259.595 194.181 262.086 200.382C265.026 207.697 267.897 215.04 270.942 222.312C272.246 225.426 273.564 228.541 275.056 231.571C275.223 231.909 275.676 231.974 275.981 231.813C287.913 225.556 301.495 223.027 314.821 222.093C318.584 221.829 322.355 221.699 326.128 221.669C326.997 221.661 327 220.307 326.128 220.315C312.504 220.429 298.61 221.757 285.657 226.207C282.102 227.43 278.63 228.898 275.298 230.645C275.607 230.725 275.915 230.807 276.223 230.887C273.268 224.889 270.84 218.617 268.349 212.416C265.409 205.101 262.538 197.757 259.493 190.485C258.189 187.372 256.871 184.257 255.378 181.226C254.994 180.445 253.827 181.131 254.211 181.91Z" fill="#231F20"/>
<path d="M311.295 169.224C315.709 180.208 320.852 190.919 326.543 201.295C328.1 204.134 329.705 206.945 331.371 209.722C331.818 210.468 332.988 209.789 332.538 209.038C326.504 198.983 321.164 188.488 316.384 177.779C315.068 174.831 313.802 171.861 312.598 168.865C312.279 168.067 310.97 168.416 311.295 169.224Z" fill="#231F20"/>
<path d="M327.524 220.593C327.38 216.845 328.665 212.689 332.032 210.647C336.303 208.057 341.406 210.324 345.072 212.918C345.784 213.421 346.461 212.248 345.755 211.749C342.363 209.35 338.07 207.384 333.839 208.441C330.657 209.238 328.309 211.712 327.117 214.701C326.374 216.564 326.095 218.595 326.172 220.594C326.206 221.462 327.558 221.465 327.524 220.593Z" fill="#231F20"/>
<path d="M258.283 173.629C263.856 186.807 268.609 200.315 273.829 213.634C275.248 217.252 276.703 220.858 278.217 224.438C278.326 224.697 278.724 224.835 278.98 224.75C290.805 220.824 303.181 218.895 315.583 218.041C319.105 217.799 322.633 217.644 326.163 217.55C327.031 217.527 327.036 216.173 326.163 216.196C313.666 216.528 301.126 217.65 288.936 220.528C285.457 221.349 282.014 222.318 278.621 223.445C278.875 223.549 279.129 223.652 279.384 223.757C273.811 210.579 269.058 197.07 263.837 183.752C262.419 180.133 260.964 176.528 259.45 172.948C259.112 172.147 257.947 172.835 258.283 173.629Z" fill="#231F20"/>
<path d="M261.73 170.419C268.876 182.112 274.093 194.996 278.081 208.081C279.188 211.714 280.19 215.378 281.083 219.071C281.167 219.421 281.571 219.645 281.915 219.543C293.509 216.102 305.512 214.12 317.598 213.686C321.035 213.563 324.477 213.567 327.914 213.689C328.786 213.72 328.784 212.367 327.914 212.336C315.768 211.907 303.574 213.007 291.702 215.617C288.29 216.368 284.906 217.246 281.557 218.24C281.835 218.398 282.112 218.555 282.39 218.712C279.146 205.28 274.526 192.08 268.381 179.697C266.696 176.301 264.878 172.972 262.902 169.737C262.445 168.993 261.275 169.672 261.73 170.419Z" fill="#231F20"/>
<path d="M331.843 208.805C319.693 206.578 306.579 205.15 294.491 208.456C291.156 209.369 287.926 210.696 285 212.547C285.332 212.681 285.663 212.817 285.993 212.952C281.76 197.06 275.008 181.841 266.022 168.07C265.948 167.956 265.806 167.664 265.689 167.562C265.633 167.477 265.578 167.394 265.522 167.309C265.291 167.973 265.27 168.21 265.456 168.019C265.481 168.033 265.279 168.044 265.507 168.008C265.567 167.999 265.809 167.885 266.022 167.814C266.744 167.571 267.484 167.383 268.222 167.196C270.346 166.66 272.489 166.2 274.634 165.757C276.752 165.319 278.874 164.901 281.003 164.519C282.846 164.189 284.206 164.069 286.147 163.985C294.872 163.613 303.759 164.433 311.044 169.705C311.75 170.216 312.425 169.042 311.727 168.536C305.133 163.765 297.106 162.465 289.135 162.548C286.699 162.574 284.236 162.602 281.827 163.007C279.812 163.345 277.807 163.737 275.804 164.14C273.496 164.604 271.191 165.088 268.9 165.635C268.009 165.849 267.118 166.068 266.241 166.327C265.748 166.474 265.146 166.608 264.713 166.9C263.714 167.571 264.732 168.562 265.185 169.263C266.338 171.046 267.454 172.854 268.533 174.683C270.716 178.386 272.744 182.18 274.609 186.052C278.823 194.795 282.19 203.934 284.689 213.313C284.798 213.723 285.313 213.95 285.682 213.717C290.903 210.412 297.032 208.873 303.129 208.27C309.333 207.655 315.609 207.935 321.793 208.643C325.039 209.015 328.269 209.522 331.484 210.111C332.335 210.267 332.7 208.963 331.843 208.805Z" fill="#231F20"/>
<path d="M339.628 136.281C340.822 135.882 342.03 135.55 343.259 135.28C343.005 135.176 342.75 135.073 342.496 134.968C348.077 146.29 354.52 157.182 361.772 167.511C363.831 170.444 365.957 173.329 368.142 176.171C368.222 175.862 368.304 175.553 368.384 175.245C358.702 181.608 350.87 190.695 345.991 201.214C344.63 204.148 343.498 207.183 342.608 210.293C342.368 211.133 343.672 211.491 343.913 210.653C347.016 199.804 353.174 189.922 361.488 182.307C363.853 180.141 366.387 178.175 369.067 176.413C369.343 176.233 369.542 175.79 369.309 175.487C361.613 165.484 354.686 154.893 348.619 143.824C346.897 140.681 345.246 137.499 343.661 134.285C343.526 134.009 343.176 133.913 342.898 133.974C341.67 134.245 340.459 134.576 339.268 134.975C338.447 135.25 338.799 136.559 339.628 136.281Z" fill="#231F20"/>
<path d="M330.867 130.676C327.597 134.356 324.706 138.41 322.052 142.552C318.66 147.84 315.624 153.439 313.526 159.376C312.414 162.517 311.596 165.778 311.351 169.109C311.286 169.978 312.64 169.973 312.703 169.109C313.141 163.176 315.449 157.44 318.092 152.178C320.738 146.913 323.906 141.899 327.4 137.158C328.8 135.259 330.256 133.399 331.823 131.635C332.401 130.985 331.447 130.025 330.867 130.676Z" fill="#231F20"/>
<path d="M340.094 208.461C343.222 198.176 348.78 188.678 356.203 180.908C358.283 178.732 360.506 176.699 362.849 174.813C363.117 174.596 363.107 174.072 362.849 173.855C361.244 172.503 359.707 171.055 358.218 169.578C357.598 168.964 356.642 169.921 357.262 170.535C358.753 172.012 360.288 173.46 361.893 174.813C361.893 174.493 361.893 174.173 361.893 173.855C353.395 180.695 346.54 189.553 342.035 199.494C340.768 202.29 339.684 205.165 338.791 208.101C338.537 208.937 339.841 209.293 340.094 208.461Z" fill="#231F20"/>
<path d="M332.706 134.356C334.467 133.339 336.291 132.455 338.192 131.731C337.914 131.573 337.637 131.416 337.359 131.258C340.361 141.409 344.647 151.179 350.11 160.245C351.661 162.82 353.311 165.336 355.044 167.792C355.079 167.519 355.115 167.246 355.15 166.972C350.658 171.261 346.603 175.892 343.176 181.084C339.721 186.32 336.909 191.978 334.811 197.892C333.625 201.234 332.68 204.656 331.972 208.131C331.8 208.981 333.102 209.346 333.277 208.49C335.736 196.416 341.164 184.981 348.989 175.464C351.194 172.784 353.599 170.322 356.106 167.929C356.306 167.738 356.38 167.347 356.212 167.11C350.149 158.516 345.169 149.163 341.475 139.312C340.438 136.542 339.502 133.736 338.663 130.899C338.566 130.573 338.179 130.294 337.831 130.426C335.822 131.192 333.886 132.114 332.023 133.189C331.271 133.622 331.951 134.792 332.706 134.356Z" fill="#231F20"/>
<path d="M255.708 181.631C257.442 180.833 259.291 180.294 261.175 179.999C261.536 179.942 261.736 179.49 261.647 179.166C261.54 178.78 261.176 178.636 260.814 178.693C258.807 179.008 256.869 179.613 255.025 180.462C254.694 180.615 254.61 181.095 254.783 181.388C254.982 181.73 255.373 181.785 255.708 181.631Z" fill="#231F20"/>
<path d="M259.217 173.886C259.288 173.843 259.36 173.803 259.436 173.766C259.467 173.75 259.499 173.737 259.53 173.723C259.445 173.761 259.475 173.744 259.544 173.72C259.707 173.661 259.871 173.608 260.039 173.567C260.228 173.519 260.421 173.48 260.614 173.448C260.666 173.439 260.719 173.431 260.771 173.423C260.783 173.422 260.911 173.405 260.84 173.412C260.757 173.423 260.928 173.402 260.944 173.4C260.998 173.394 261.052 173.388 261.106 173.383C261.85 173.307 262.601 173.297 263.349 173.301C263.702 173.303 264.041 172.988 264.026 172.624C264.009 172.255 263.728 171.949 263.349 171.946C262.556 171.941 261.764 171.954 260.976 172.042C260.144 172.134 259.262 172.272 258.533 172.716C258.221 172.906 258.104 173.323 258.291 173.642C258.474 173.954 258.904 174.076 259.217 173.886Z" fill="#231F20"/>
<path d="M261.952 170.358C263.162 170.31 264.365 170.081 265.502 169.661C265.834 169.539 266.094 169.197 265.974 168.828C265.869 168.504 265.498 168.224 265.142 168.355C264.611 168.551 264.069 168.707 263.514 168.82C263.381 168.846 263.247 168.871 263.113 168.893C263.04 168.905 262.968 168.914 262.895 168.927C263.043 168.903 262.84 168.933 262.826 168.934C262.535 168.968 262.243 168.991 261.95 169.002C261.597 169.016 261.258 169.303 261.274 169.68C261.291 170.035 261.573 170.371 261.952 170.358Z" fill="#231F20"/>
<path d="M344.463 137.055C345.031 136.683 345.598 136.311 346.165 135.939C346.457 135.747 346.748 135.557 347.039 135.366C347.178 135.275 347.315 135.185 347.454 135.094C347.517 135.053 347.619 135.014 347.667 134.955C347.742 134.864 347.801 134.969 347.648 134.891C347.588 134.898 347.542 134.88 347.51 134.833C347.465 134.782 347.459 134.782 347.491 134.83C347.507 134.889 347.557 134.954 347.584 135.012C347.653 135.161 347.719 135.312 347.787 135.462C347.93 135.778 348.072 136.093 348.216 136.409C348.501 137.041 348.788 137.672 349.073 138.304C349.224 138.637 349.707 138.717 349.998 138.546C350.34 138.345 350.391 137.955 350.24 137.62C349.908 136.888 349.579 136.158 349.247 135.426C349.09 135.077 348.933 134.727 348.774 134.38C348.607 134.015 348.361 133.699 347.957 133.594C347.539 133.484 347.158 133.673 346.816 133.895C346.478 134.116 346.141 134.338 345.805 134.559C345.129 135.002 344.456 135.443 343.78 135.886C343.475 136.087 343.347 136.485 343.538 136.812C343.716 137.115 344.156 137.255 344.463 137.055Z" fill="#231F20"/>
<path d="M336.349 208.327C340.225 196.919 344.485 185.161 352.208 175.726C354.356 173.104 356.761 170.706 359.414 168.599C359.701 168.371 359.649 167.878 359.414 167.642C355.844 164.041 352.608 160.142 349.859 155.873C347.119 151.619 344.862 147.082 342.776 142.478C342.417 141.686 341.252 142.373 341.609 143.161C343.731 147.843 346.029 152.456 348.831 156.772C351.609 161.051 354.869 164.979 358.458 168.601C358.458 168.281 358.458 167.962 358.458 167.644C348.73 175.365 342.958 186.699 338.581 198.082C337.325 201.348 336.172 204.654 335.045 207.967C334.764 208.793 336.07 209.148 336.349 208.327Z" fill="#231F20"/>
<path d="M330.816 131.794C334.564 142.546 340.92 152.181 348.109 160.926C350.16 163.42 352.29 165.845 354.478 168.22C355.068 168.862 356.024 167.902 355.434 167.263C347.869 159.047 340.871 150.134 335.823 140.124C334.404 137.308 333.158 134.412 332.12 131.434C331.835 130.618 330.529 130.968 330.816 131.794Z" fill="#231F20"/>
<path d="M321.084 158.329C323.154 154.124 325.522 150.046 328.439 146.369C328.707 146.031 328.231 145.549 327.961 145.891C325.006 149.615 322.597 153.728 320.499 157.988C320.308 158.377 320.892 158.721 321.084 158.329Z" fill="#231F20"/>
<path d="M316.585 170.036C317.379 167.014 318.472 164.081 319.733 161.224C319.907 160.829 319.324 160.484 319.149 160.883C317.864 163.794 316.742 166.776 315.933 169.857C315.823 170.279 316.475 170.458 316.585 170.036Z" fill="#231F20"/>
<path d="M330.081 155.035C330.778 154.012 331.499 153.005 332.247 152.019C332.358 151.874 332.27 151.641 332.125 151.556C331.951 151.454 331.773 151.531 331.662 151.678C330.915 152.664 330.192 153.671 329.496 154.694C329.393 154.845 329.467 155.069 329.618 155.157C329.785 155.254 329.977 155.186 330.081 155.035Z" fill="#231F20"/>
<path d="M320.388 175.314C322.32 169.714 324.569 164.209 327.541 159.075C327.76 158.697 327.176 158.356 326.957 158.734C323.957 163.917 321.686 169.481 319.736 175.135C319.592 175.547 320.246 175.725 320.388 175.314Z" fill="#231F20"/>
<path d="M331.121 164.649C332.382 162.508 333.754 160.43 335.296 158.481C335.563 158.143 335.088 157.661 334.818 158.002C333.239 159.998 331.829 162.116 330.538 164.308C330.316 164.683 330.901 165.024 331.121 164.649Z" fill="#231F20"/>
<path d="M323.265 181.452C325.035 176.961 326.923 172.514 329.145 168.227C329.345 167.841 328.763 167.499 328.561 167.886C326.311 172.224 324.404 176.728 322.613 181.271C322.454 181.677 323.108 181.853 323.265 181.452Z" fill="#231F20"/>
<path d="M328.82 181.183C331.226 176.259 333.895 171.446 337.122 167.008C338.059 165.719 339.046 164.465 340.08 163.252C340.361 162.923 339.886 162.442 339.602 162.774C335.987 167.009 332.995 171.733 330.377 176.64C329.637 178.026 328.926 179.43 328.237 180.842C328.044 181.233 328.627 181.575 328.82 181.183Z" fill="#231F20"/>
<path d="M325.95 187.413C326.268 186.685 326.59 185.956 326.919 185.232C326.991 185.072 326.969 184.86 326.797 184.769C326.649 184.69 326.411 184.718 326.334 184.891C326.007 185.617 325.684 186.344 325.366 187.072C325.295 187.234 325.314 187.443 325.488 187.535C325.634 187.612 325.875 187.588 325.95 187.413Z" fill="#231F20"/>
<path d="M336.705 179.991C338.213 177.415 339.778 174.87 341.497 172.428C341.748 172.071 341.162 171.731 340.913 172.086C339.195 174.528 337.629 177.074 336.121 179.65C335.901 180.027 336.485 180.368 336.705 179.991Z" fill="#231F20"/>
<path d="M329.151 195.062C330.795 190.7 332.988 186.577 335.261 182.515C335.474 182.134 334.889 181.793 334.677 182.174C332.375 186.287 330.164 190.465 328.499 194.883C328.345 195.291 328.999 195.467 329.151 195.062Z" fill="#231F20"/>
<path d="M289.411 169.294C295.521 168.703 301.72 169.221 307.58 171.091C307.996 171.224 308.173 170.571 307.76 170.438C301.849 168.551 295.576 168.02 289.413 168.616C288.981 168.658 288.976 169.336 289.411 169.294Z" fill="#231F20"/>
<path d="M276.949 171.986C279.629 171.109 282.361 170.401 285.134 169.894C285.561 169.816 285.381 169.164 284.954 169.241C282.18 169.749 279.448 170.456 276.769 171.333C276.357 171.467 276.535 172.122 276.949 171.986Z" fill="#231F20"/>
<path d="M281.064 177.074C288.142 175.694 295.419 174.312 302.651 175.195C304.68 175.444 306.681 175.892 308.617 176.546C309.03 176.685 309.208 176.032 308.798 175.893C301.795 173.528 294.283 174.096 287.111 175.277C285.028 175.62 282.956 176.018 280.884 176.421C280.458 176.504 280.639 177.157 281.064 177.074Z" fill="#231F20"/>
<path d="M297.251 181.149C301.874 180.879 306.513 181.018 311.115 181.544C311.547 181.594 311.544 180.916 311.115 180.867C306.513 180.34 301.874 180.201 297.251 180.472C296.819 180.496 296.816 181.174 297.251 181.149Z" fill="#231F20"/>
<path d="M283.827 183.051C286.788 182.404 289.778 181.889 292.79 181.538C293.217 181.489 293.222 180.811 292.79 180.861C289.718 181.217 286.668 181.737 283.648 182.396C283.223 182.491 283.401 183.144 283.827 183.051Z" fill="#231F20"/>
<path d="M312.017 187.611C312.98 187.667 313.944 187.733 314.906 187.81C315.088 187.824 315.244 187.645 315.244 187.472C315.244 187.278 315.088 187.148 314.906 187.134C313.944 187.058 312.98 186.992 312.017 186.935C311.835 186.924 311.679 187.098 311.679 187.273C311.679 187.464 311.835 187.6 312.017 187.611Z" fill="#231F20"/>
<path d="M287.462 189.767C292.593 188.218 297.943 187.577 303.289 187.446C304.797 187.409 306.305 187.412 307.812 187.443C308.247 187.452 308.247 186.774 307.812 186.765C302.437 186.652 297.028 186.918 291.748 187.991C290.243 188.296 288.753 188.67 287.282 189.114C286.867 189.241 287.044 189.894 287.462 189.767Z" fill="#231F20"/>
<path d="M298.507 193.988C304.487 193.258 310.53 193.12 316.538 193.588C316.972 193.622 316.97 192.944 316.538 192.91C310.53 192.443 304.488 192.58 298.507 193.31C298.08 193.363 298.075 194.04 298.507 193.988Z" fill="#231F20"/>
<path d="M289.702 195.533C291.17 195.2 292.647 194.903 294.13 194.642C294.557 194.567 294.377 193.915 293.95 193.989C292.466 194.25 290.991 194.547 289.522 194.88C289.098 194.976 289.277 195.629 289.702 195.533Z" fill="#231F20"/>
<path d="M311.379 199.874C314.656 199.814 317.932 199.894 321.208 199.994C321.643 200.008 321.643 199.33 321.208 199.316C317.932 199.216 314.656 199.136 311.379 199.196C310.944 199.205 310.944 199.883 311.379 199.874Z" fill="#231F20"/>
<path d="M291.968 203.294C296.783 201.319 301.942 200.409 307.114 200.056C307.546 200.027 307.549 199.349 307.114 199.378C301.883 199.736 296.66 200.644 291.79 202.642C291.39 202.804 291.565 203.46 291.968 203.294Z" fill="#231F20"/>
<path d="M326.183 219.736C326.01 220.338 325.946 221.002 326.123 221.611C326.276 222.136 326.592 222.573 327.039 222.883C327.833 223.435 328.964 223.323 329.655 222.661C330.11 222.226 330.307 221.599 330.326 220.983C330.336 220.628 330.007 220.29 329.649 220.306C329.273 220.323 328.984 220.603 328.972 220.983C328.971 221.039 328.966 221.096 328.961 221.151C328.957 221.216 328.92 221.292 328.972 221.079C328.966 221.104 328.964 221.131 328.96 221.156C328.941 221.253 328.917 221.349 328.883 221.442C328.875 221.463 328.864 221.485 328.858 221.507C328.93 221.29 328.917 221.375 328.889 221.428C328.872 221.46 328.855 221.494 328.836 221.527C328.815 221.564 328.79 221.599 328.767 221.636C328.735 221.686 328.67 221.733 328.823 221.567C328.806 221.585 328.792 221.604 328.776 221.622C328.724 221.681 328.665 221.73 328.608 221.783C328.79 221.616 328.701 221.713 328.641 221.752C328.605 221.775 328.568 221.797 328.531 221.817C328.466 221.851 328.325 221.888 328.57 221.806C328.539 221.817 328.51 221.829 328.479 221.838C328.442 221.851 328.405 221.86 328.368 221.869C328.292 221.886 328.121 221.891 328.395 221.872C328.325 221.877 328.255 221.885 328.183 221.883C328.144 221.882 328.106 221.879 328.067 221.875C328.015 221.872 327.941 221.845 328.189 221.892C328.163 221.888 328.138 221.885 328.112 221.879C328.041 221.865 327.972 221.846 327.905 221.821C327.746 221.764 328.061 221.897 327.939 221.837C327.898 221.817 327.856 221.795 327.816 221.772C327.787 221.755 327.759 221.737 327.731 221.718C327.591 221.622 327.857 221.829 327.754 221.738C327.691 221.682 327.632 221.624 327.577 221.562C327.484 221.459 327.691 221.724 327.591 221.579C327.568 221.545 327.546 221.511 327.526 221.477C327.504 221.442 327.486 221.405 327.467 221.368C327.457 221.348 327.449 221.324 327.438 221.304C327.548 221.513 327.484 221.417 327.463 221.355C327.426 221.252 327.401 221.147 327.381 221.039C327.369 220.975 327.384 220.895 327.39 221.113C327.389 221.077 327.383 221.04 327.379 221.003C327.375 220.946 327.373 220.889 327.373 220.832C327.373 220.761 327.376 220.691 327.381 220.62C327.384 220.59 327.387 220.557 327.39 220.526C327.401 220.409 327.363 220.702 327.383 220.577C327.41 220.414 327.444 220.253 327.491 220.094C327.588 219.754 327.372 219.342 327.019 219.26C326.653 219.18 326.286 219.37 326.183 219.736Z" fill="#231F20"/>
<path d="M343.412 214.841C344.218 215.287 345.209 215.596 346.09 215.179C346.819 214.833 347.047 213.929 346.789 213.209C346.611 212.709 346.298 212.28 345.917 211.914C345.661 211.669 345.211 211.641 344.961 211.914C344.717 212.18 344.688 212.61 344.961 212.871C345.086 212.992 345.203 213.118 345.311 213.256C345.276 213.209 345.24 213.165 345.205 213.118C345.328 213.277 345.434 213.449 345.514 213.632C345.491 213.578 345.47 213.524 345.447 213.47C345.498 213.592 345.538 213.719 345.556 213.852C345.548 213.791 345.541 213.731 345.531 213.671C345.544 213.768 345.547 213.865 345.535 213.963C345.542 213.902 345.55 213.842 345.559 213.782C345.548 213.855 345.53 213.926 345.502 213.995C345.525 213.941 345.547 213.887 345.57 213.833C345.542 213.899 345.507 213.96 345.464 214.017C345.499 213.97 345.535 213.926 345.57 213.879C345.528 213.932 345.481 213.978 345.428 214.018C345.474 213.983 345.519 213.947 345.565 213.912C345.504 213.958 345.439 213.995 345.368 214.024C345.422 214.001 345.476 213.98 345.53 213.956C345.434 213.995 345.336 214.021 345.234 214.035C345.294 214.027 345.354 214.02 345.414 214.011C345.259 214.031 345.101 214.027 344.946 214.007C345.006 214.015 345.066 214.023 345.126 214.032C344.867 213.997 344.617 213.918 344.375 213.818C344.429 213.841 344.483 213.862 344.537 213.885C344.386 213.821 344.24 213.748 344.096 213.669C343.786 213.498 343.344 213.584 343.171 213.912C343 214.233 343.08 214.657 343.412 214.841Z" fill="#231F20"/>
<path d="M367.56 94.7972C366.294 98.7266 365.031 102.649 363.765 106.578C363.482 107.456 363.991 108.45 364.868 108.734C365.753 109.019 366.736 108.515 367.021 107.629C368.287 103.7 369.55 99.7779 370.816 95.8485C371.101 94.9628 370.59 93.9762 369.713 93.693C368.831 93.3999 367.845 93.9115 367.56 94.7972Z" fill="#C28AFF"/>
<path d="M360.879 100.938C364.803 102.205 368.72 103.47 372.645 104.738C373.522 105.021 374.515 104.512 374.798 103.633C375.083 102.748 374.579 101.764 373.695 101.478C369.77 100.211 365.853 98.9458 361.929 97.6784C361.044 97.3928 360.059 97.9045 359.776 98.7827C359.491 99.6683 359.994 100.652 360.879 100.938Z" fill="#C28AFF"/>
</svg>
